<?xml version="1.0" encoding="UTF-8" standalone="no"?>
<svg
   xmlns:dc="http://purl.org/dc/elements/1.1/"
   xmlns:cc="http://creativecommons.org/ns#"
   xmlns:rdf="http://www.w3.org/1999/02/22-rdf-syntax-ns#"
   xmlns:svg="http://www.w3.org/2000/svg"
   xmlns="http://www.w3.org/2000/svg"
   id="svg8"
   version="1.1"
   viewBox="0 0 83.917358 7.4620767"
   height="7.4620767mm"
   width="83.917358mm">
  <defs
     id="defs2" />
  <metadata
     id="metadata5">
    <rdf:RDF>
      <cc:Work
         rdf:about="">
        <dc:format>image/svg+xml</dc:format>
        <dc:type
           rdf:resource="http://purl.org/dc/dcmitype/StillImage" />
        <dc:title></dc:title>
      </cc:Work>
    </rdf:RDF>
  </metadata>
  <g
     transform="translate(-37.816813,-23.54895)"
     id="layer1">
    <g
       id="flowRoot10"
       style="font-style:normal;font-variant:normal;font-weight:bold;font-stretch:normal;font-size:40px;line-height:1.25;font-family:sans-serif;-inkscape-font-specification:'sans-serif Bold';letter-spacing:0px;word-spacing:0px;fill:#000000;fill-opacity:1;stroke:none"
       transform="scale(0.26458333)"
       aria-label="FELLOW HUMANS">
      <path
         id="path62"
         style=""
         d="m 148.4375,94.609375 v 5.839845 h 9.96094 v 4.86328 h -9.96094 v 11.28906 h -5.50781 V 89.570312 h 17.38281 v 5.039063 z" />
      <path
         id="path64"
         style=""
         d="M 164.49219,116.60156 V 89.570312 h 17.55859 v 4.863282 H 170 v 5.761716 h 10.15625 v 4.88282 H 170 v 6.48437 h 12.05078 v 5.03906 z" />
      <path
         id="path66"
         style=""
         d="M 186.91406,116.60156 V 89.570312 h 5.50781 V 111.5625 h 11.36719 v 5.03906 z" />
      <path
         id="path68"
         style=""
         d="M 207.22656,116.60156 V 89.570312 h 5.50781 V 111.5625 h 11.36719 v 5.03906 z" />
      <path
         id="path70"
         style=""
         d="m 249.17969,103.08594 q 0,7.05078 -2.98828,10.5664 -2.96875,3.51563 -8.65235,3.51563 -5.99609,0 -8.82812,-3.69141 -2.8125,-3.71093 -2.8125,-10.39062 0,-6.718753 2.8125,-10.390628 2.83203,-3.691406 8.82812,-3.691406 6.03516,0 8.82813,3.691406 2.8125,3.671875 2.8125,10.390628 z m -5.6836,0 q 0,-4.80469 -1.36718,-6.99219 -1.34766,-2.207031 -4.58985,-2.207031 -3.24219,0 -4.60937,2.207031 -1.34766,2.1875 -1.34766,6.99219 0,4.80469 1.36719,7.01172 1.38672,2.1875 4.58984,2.1875 3.24219,0 4.58985,-2.1875 1.36718,-2.20703 1.36718,-7.01172 z" />
      <path
         id="path72"
         style=""
         d="m 278.4375,116.60156 h -5.64453 l -4.53125,-17.871091 -4.55078,17.871091 h -5.56641 l -6.83594,-27.031248 h 5.48828 l 4.31641,17.636718 4.47266,-17.636718 h 5.44922 l 4.51171,17.753908 4.4336,-17.753908 h 5.44922 z" />
      <path
         id="path74"
         style=""
         d="m 314.94141,116.60156 v -11.48437 h -10.64454 v 11.48437 h -5.50781 V 89.570312 h 5.50781 v 10.507818 h 10.64454 V 89.570312 h 5.52734 v 27.031248 z" />
      <path
         id="path76"
         style=""
         d="m 348.51562,105.3125 q 0,6.34766 -2.57812,9.12109 -2.57813,2.77344 -8.53516,2.77344 -5.89843,0 -8.51562,-2.73437 -2.59766,-2.75391 -2.59766,-9.16016 V 89.570312 h 5.50781 v 15.351568 q 0,2.7539 0.52735,4.33593 0.52734,1.58203 1.67969,2.32422 1.15234,0.74219 3.35937,0.74219 3.14453,0 4.39453,-1.66016 1.25,-1.67968 1.25,-5.66406 V 89.570312 h 5.50781 z" />
      <path
         id="path78"
         style=""
         d="M 375.80078,116.60156 V 98.4375 l -6.48437,11.28906 h -3.1836 L 359.72656,98.4375 v 18.16406 h -5.3125 V 89.570312 h 6.34766 l 7.05078,12.832028 7.10937,-12.832028 h 6.21094 v 27.031248 z" />
      <path
         id="path80"
         style=""
         d="m 384.58984,116.60156 8.94532,-27.031248 h 7.16796 l 8.96485,27.031248 h -5.64453 l -1.79688,-5.48828 h -10.41015 l -1.75782,5.48828 z m 8.78907,-10.3125 h 7.28515 l -3.63281,-11.171873 z" />
      <path
         id="path82"
         style=""
         d="m 428.32031,116.60156 -9.84375,-19.316404 v 19.316404 h -5.39062 V 89.570312 h 7.14843 l 9.16016,18.222658 V 89.570312 h 5.41016 v 27.031248 z" />
      <path
         id="path84"
         style=""
         d="m 460.09766,108.76953 q 0,4.0625 -2.67579,6.23047 -2.65625,2.16797 -7.85156,2.16797 -3.59375,0 -6.25,-1.19141 -2.63672,-1.1914 -4.29687,-3.84765 l 4.23828,-3.24219 q 0.9375,1.32812 1.77734,1.99219 0.83985,0.66406 1.99219,1.03515 1.15234,0.3711 2.65625,0.3711 2.24609,0 3.49609,-0.76172 1.26953,-0.78125 1.26953,-2.36328 0,-0.89844 -0.44921,-1.50391 -0.42969,-0.60547 -1.3086,-1.03516 -0.8789,-0.44921 -3.04687,-1.01562 -2.10938,-0.56641 -3.98438,-1.13281 -1.85547,-0.58594 -3.22265,-1.50391 -1.34766,-0.91797 -2.12891,-2.30469 -0.78125,-1.386716 -0.78125,-3.496091 0,-3.847657 2.59766,-5.996094 2.59765,-2.167969 7.4414,-2.167969 7.01172,0 9.92188,4.804688 l -4.19922,3.28125 q -1.11328,-1.71875 -2.5,-2.460938 -1.38672,-0.742187 -3.30078,-0.742187 -1.91407,0 -3.125,0.703125 -1.19141,0.683593 -1.19141,2.167968 0,1.308594 1.25,2.011719 1.25,0.683594 4.35547,1.386719 1.71875,0.44922 3.39844,0.97656 1.67968,0.50782 2.98828,1.42578 1.32812,0.91797 2.1289,2.40235 0.80079,1.48437 0.80079,3.80859 z" />
    </g>
  </g>
</svg>
