<?xml version="1.0" encoding="UTF-8" standalone="no"?>
<svg
   xmlns:dc="http://purl.org/dc/elements/1.1/"
   xmlns:cc="http://creativecommons.org/ns#"
   xmlns:rdf="http://www.w3.org/1999/02/22-rdf-syntax-ns#"
   xmlns:svg="http://www.w3.org/2000/svg"
   xmlns="http://www.w3.org/2000/svg"
   xmlns:sodipodi="http://sodipodi.sourceforge.net/DTD/sodipodi-0.dtd"
   xmlns:inkscape="http://www.inkscape.org/namespaces/inkscape"
   id="svg8"
   version="1.1"
   viewBox="0 0 29.682944 7.4517436"
   height="7.4517436mm"
   width="29.682943mm"
   sodipodi:docname="HELLO.svg"
   inkscape:version="0.92.4 5da689c313, 2019-01-14">
  <sodipodi:namedview
     pagecolor="#ffffff"
     bordercolor="#666666"
     borderopacity="1"
     objecttolerance="10"
     gridtolerance="10"
     guidetolerance="10"
     inkscape:pageopacity="0"
     inkscape:pageshadow="2"
     inkscape:window-width="1366"
     inkscape:window-height="717"
     id="namedview10"
     showgrid="false"
     inkscape:zoom="2.6198463"
     inkscape:cx="60.361327"
     inkscape:cy="11.503909"
     inkscape:window-x="0"
     inkscape:window-y="25"
     inkscape:window-maximized="1"
     inkscape:current-layer="flowRoot10"
     fit-margin-top="0"
     fit-margin-left="0"
     fit-margin-right="0"
     fit-margin-bottom="0" />
  <defs
     id="defs2" />
  <metadata
     id="metadata5">
    <rdf:RDF>
      <cc:Work
         rdf:about="">
        <dc:format>image/svg+xml</dc:format>
        <dc:type
           rdf:resource="http://purl.org/dc/dcmitype/StillImage" />
        <dc:title></dc:title>
      </cc:Work>
    </rdf:RDF>
  </metadata>
  <g
     transform="translate(-21.941813,-75.709589)"
     id="layer1">
    <g
       aria-label="HELLO,"
       transform="scale(0.26458333)"
       style="font-style:normal;font-variant:normal;font-weight:bold;font-stretch:normal;font-size:40px;line-height:1.25;font-family:sans-serif;-inkscape-font-specification:'sans-serif Bold';letter-spacing:0px;word-spacing:0px;fill:#0c090d;fill-opacity:1;stroke:none"
       id="flowRoot10">
      <path
         d="M 99.082031,313.74414 V 302.25977 H 88.4375 v 11.48437 H 82.929687 V 286.71289 H 88.4375 v 10.50781 h 10.644531 v -10.50781 h 5.527349 v 27.03125 z"
         id="path12"
         inkscape:connector-curvature="0" />
      <path
         d="m 110.42969,313.74414 v -27.03125 h 17.55859 v 4.86328 H 115.9375 v 5.76172 h 10.15625 v 4.88281 H 115.9375 v 6.48438 h 12.05078 v 5.03906 z"
         id="path14"
         inkscape:connector-curvature="0" />
      <path
         d="m 132.85156,313.74414 v -27.03125 h 5.50781 v 21.99219 h 11.36719 v 5.03906 z"
         id="path16"
         inkscape:connector-curvature="0" />
      <path
         d="m 153.16406,313.74414 v -27.03125 h 5.50781 v 21.99219 h 11.36719 v 5.03906 z"
         id="path18"
         inkscape:connector-curvature="0" />
      <path
         d="m 195.11719,300.22852 q 0,7.05078 -2.98828,10.5664 -2.96875,3.51563 -8.65235,3.51563 -5.99609,0 -8.82812,-3.69141 -2.8125,-3.71094 -2.8125,-10.39062 0,-6.71875 2.8125,-10.39063 2.83203,-3.69141 8.82812,-3.69141 6.03516,0 8.82813,3.69141 2.8125,3.67188 2.8125,10.39063 z m -5.6836,0 q 0,-4.80469 -1.36718,-6.99219 -1.34766,-2.20703 -4.58985,-2.20703 -3.24219,0 -4.60937,2.20703 -1.34766,2.1875 -1.34766,6.99219 0,4.80468 1.36719,7.01171 1.38672,2.1875 4.58984,2.1875 3.24219,0 4.58985,-2.1875 1.36718,-2.20703 1.36718,-7.01171 z"
         id="path20"
         inkscape:connector-curvature="0" />
    </g>
  </g>
</svg>
